<svg id="svg" xmlns="http://www.w3.org/2000/svg" width="400" height="300" viewBox="0, 0, 400,300">
    <g id="svgg">
        <path id="path0"
              d="M200.156 55.832 C 171.699 57.549,150.301 71.793,141.787 94.688 C 140.252 98.815,138.033 109.705,138.561 110.519 C 138.655 110.663,171.404 114.638,171.523 114.519 C 171.600 114.441,171.994 113.102,172.398 111.542 C 176.810 94.511,187.231 85.043,203.334 83.434 C 222.258 81.543,237.414 92.696,237.313 108.438 C 237.252 117.813,234.365 121.791,217.351 135.933 C 192.988 156.185,188.643 163.816,188.218 187.109 L 188.051 196.250 204.454 196.250 L 220.857 196.250 221.020 190.234 C 221.402 176.205,223.702 172.122,237.969 160.147 C 265.719 136.854,272.943 125.874,272.404 107.813 C 271.455 76.055,240.004 53.427,200.156 55.832 M188.125 226.406 L 188.125 244.375 206.094 244.375 L 224.063 244.375 224.063 226.406 L 224.063 208.438 206.094 208.438 L 188.125 208.438 188.125 226.406 "
              stroke="none" fill="#ECF7F3" fill-rule="evenodd"></path>
    </g>
</svg>