<svg id="svg" xmlns="http://www.w3.org/2000/svg" width="400" height="605.5555555555555"
     viewBox="0, 0, 400,605.5555555555555">
    <g id="svgg">
        <path id="path0"
              d="M315.779 2.695 C 313.709 4.889,309.259 18.941,309.259 23.282 C 309.259 26.944,314.834 26.583,318.571 22.679 C 321.489 19.630,326.062 8.804,325.596 6.047 C 324.660 0.506,319.504 -1.254,315.779 2.695 M345.498 22.530 C 334.444 30.970,313.755 60.064,297.219 90.420 C 289.808 104.025,286.959 108.193,285.461 107.618 C 284.843 107.381,286.429 103.678,291.426 93.690 C 296.367 83.818,298.048 79.900,297.557 79.409 C 295.827 77.679,290.128 84.786,273.991 108.796 C 261.593 127.243,260.884 128.128,260.211 126.007 C 258.818 121.618,257.255 122.246,252.341 129.174 C 248.491 134.601,246.944 135.638,244.796 134.231 C 241.826 132.285,240.692 133.583,232.377 148.451 C 225.162 161.352,223.160 166.082,220.748 175.926 C 218.439 185.353,216.123 192.496,208.339 214.198 C 205.721 221.497,198.596 242.307,192.505 260.441 C 186.414 278.576,180.959 294.213,180.381 295.190 C 179.035 297.469,176.468 297.396,175.846 295.062 C 175.620 294.213,174.582 290.880,173.540 287.654 C 171.478 281.271,170.068 275.918,169.114 270.847 C 168.777 269.057,166.425 260.088,163.887 250.917 C 157.316 227.177,153.277 209.038,149.181 184.873 C 146.553 169.372,145.855 167.854,137.650 159.820 L 131.603 153.899 126.956 153.104 C 120.570 152.012,116.301 152.452,113.265 154.515 C 110.554 156.357,108.487 156.570,106.173 155.247 C 102.205 152.979,100.505 154.425,97.275 162.814 C 96.002 166.121,94.040 170.355,92.915 172.222 C 89.724 177.518,88.859 181.309,88.452 191.782 C 87.986 203.801,88.581 205.272,97.064 213.086 C 103.600 219.105,106.636 223.703,109.002 231.162 C 109.861 233.871,111.833 239.288,113.384 243.199 C 114.934 247.109,119.744 260.309,124.071 272.531 C 135.519 304.867,137.938 311.207,141.971 319.444 C 144.898 325.421,145.788 327.984,146.582 332.716 C 147.123 335.941,148.696 343.288,150.076 349.043 C 152.791 360.361,152.976 364.359,151.209 373.457 C 149.788 380.771,150.859 382.914,161.393 393.842 C 166.487 399.125,171.766 405.301,173.795 408.351 C 178.207 414.982,179.316 415.743,184.541 415.732 C 194.079 415.711,199.911 409.184,199.975 398.457 C 200.112 375.708,207.369 335.593,217.173 303.395 C 218.517 298.981,221.475 289.259,223.746 281.790 C 226.018 274.321,228.524 264.849,229.316 260.740 C 230.360 255.325,231.391 252.015,233.066 248.703 C 234.337 246.191,236.658 240.941,238.224 237.037 C 240.330 231.788,242.375 228.089,246.072 222.840 C 248.822 218.935,253.913 210.741,257.386 204.630 C 260.858 198.519,265.121 191.435,266.859 188.889 C 268.596 186.343,271.603 181.898,273.539 179.012 C 282.276 165.993,299.292 129.012,296.546 129.012 C 295.349 129.012,292.222 132.151,288.843 136.743 C 285.479 141.314,282.114 144.444,280.565 144.444 C 274.917 144.444,304.778 83.648,316.867 70.533 C 319.123 68.086,322.640 65.637,323.150 66.158 C 324.235 67.267,318.344 80.118,311.851 90.807 C 304.969 102.136,303.308 105.698,305.023 105.448 C 306.039 105.300,308.826 101.752,315.507 92.100 C 325.170 78.138,325.511 77.777,325.809 81.160 C 326.421 88.103,332.930 80.003,333.554 71.522 C 334.303 61.359,335.416 58.991,348.611 39.490 C 358.422 24.991,358.857 23.836,355.328 21.655 C 352.102 19.661,348.879 19.948,345.498 22.530 M342.560 38.983 C 338.882 46.280,330.146 55.999,327.905 55.287 C 325.508 54.526,325.981 53.169,330.869 46.794 C 338.506 36.834,338.419 36.922,341.084 36.455 C 344.197 35.909,344.150 35.830,342.560 38.983 M391.978 204.986 L 388.396 208.738 386.513 207.764 C 383.773 206.347,383.160 206.493,378.555 209.659 C 363.128 220.268,350.437 223.273,335.111 219.946 C 315.132 215.608,299.236 218.518,278.395 230.326 C 236.267 254.195,212.396 304.947,230.749 331.623 C 239.693 344.622,245.266 346.645,288.914 352.740 C 332.681 358.852,336.418 365.370,308.490 386.884 C 294.718 397.494,291.340 399.545,268.586 411.118 C 244.166 423.539,234.874 428.988,211.820 444.409 C 193.997 456.330,193.283 456.976,194.871 459.744 C 196.854 463.199,196.733 463.277,178.395 470.244 L 167.593 474.348 160.802 474.385 C 148.131 474.454,135.472 484.414,138.793 491.703 L 139.561 493.389 145.060 493.033 C 152.149 492.574,154.951 491.302,159.951 486.277 C 166.529 479.667,176.802 475.834,187.581 475.969 C 195.128 476.064,194.205 478.703,185.349 482.355 C 175.406 486.455,171.421 489.109,170.662 492.133 C 170.147 494.184,169.914 494.176,174.941 492.284 C 179.543 490.552,182.536 490.330,184.265 491.594 C 186.526 493.248,184.256 494.915,173.130 499.771 C 161.963 504.645,162.414 504.558,154.488 503.355 C 149.627 502.618,118.303 520.978,120.565 523.239 C 120.713 523.388,122.328 522.942,124.152 522.249 C 129.159 520.346,131.919 521.187,129.399 523.847 C 129.079 524.185,119.178 528.944,114.646 530.938 C 106.762 534.408,103.163 533.688,107.709 529.552 C 112.393 525.289,109.200 522.690,104.012 526.541 C 98.760 530.440,97.808 530.700,94.738 529.072 C 91.121 527.153,89.881 527.461,79.321 532.897 C 70.018 537.686,69.462 538.293,70.993 541.988 C 73.197 547.309,65.521 550.877,58.576 547.760 C 52.668 545.109,47.504 548.236,49.711 553.130 C 51.131 556.279,50.518 557.509,47.162 558.243 C 39.739 559.868,36.179 562.189,30.874 568.864 C 24.664 576.679,26.957 581.480,34.601 576.668 C 43.234 571.234,69.201 558.025,71.250 558.025 C 72.679 558.025,76.596 560.724,75.926 561.247 C 65.581 569.336,44.879 580.773,34.382 584.200 C 30.512 585.463,16.038 593.086,3.840 600.284 C 0.691 602.143,0.032 603.437,1.620 604.640 C 3.798 606.289,8.348 605.363,10.437 602.846 C 10.866 602.329,13.794 600.908,16.944 599.688 C 20.094 598.467,26.112 595.503,30.317 593.102 C 34.522 590.700,39.491 587.863,41.358 586.798 C 51.841 580.816,56.255 579.471,58.810 581.481 C 61.897 583.909,73.109 579.405,92.400 567.990 C 103.079 561.671,111.943 557.595,118.779 555.861 C 125.921 554.049,127.033 553.499,127.526 551.537 C 127.859 550.211,130.587 548.787,132.831 548.769 C 137.822 548.728,149.383 541.352,149.383 538.207 C 149.383 536.858,144.812 536.913,141.460 538.303 C 138.775 539.416,136.767 539.746,132.430 539.790 C 126.311 539.851,126.558 539.752,107.322 549.874 C 91.789 558.047,82.554 557.335,93.835 548.834 C 100.362 543.916,125.102 530.247,127.476 530.247 C 127.666 530.247,135.222 526.566,144.267 522.068 L 160.712 513.889 166.797 514.037 C 172.537 514.176,173.065 514.081,176.126 512.353 C 177.911 511.346,183.804 509.011,189.222 507.165 C 194.641 505.319,205.937 501.033,214.325 497.640 C 227.342 492.375,235.532 489.606,236.136 490.265 C 237.864 492.153,234.494 494.944,224.383 500.000 C 213.718 505.332,212.531 506.326,214.293 508.448 C 215.302 509.664,225.626 509.220,230.556 507.749 C 232.253 507.242,244.059 500.954,256.790 493.776 C 293.397 473.136,293.662 472.969,298.534 467.512 C 309.968 454.703,309.571 455.001,333.642 441.048 C 380.074 414.132,396.546 394.197,389.349 373.627 C 379.569 345.671,366.229 336.499,332.099 334.266 C 309.269 332.773,283.798 328.635,278.571 325.572 C 269.028 319.980,267.806 302.328,276.002 288.457 C 281.850 278.560,299.832 264.572,307.759 263.753 C 315.691 262.935,329.203 270.902,343.380 284.756 C 352.400 293.570,362.455 298.689,367.377 296.974 C 377.735 293.363,394.249 273.589,397.843 260.494 C 399.510 254.422,399.994 219.639,398.454 216.661 C 397.696 215.195,397.453 213.426,397.572 210.250 C 397.969 199.690,397.476 199.226,391.978 204.986 M127.418 547.928 C 127.632 548.486,127.668 549.081,127.499 549.250 C 127.105 549.644,125.309 548.172,125.309 547.455 C 125.309 546.497,127.015 546.879,127.418 547.928 "
              fill="#ECF7F3"
              stroke="none"
              fill-rule="evenodd">
        </path>
    </g>
</svg>